<mxfile host="app.diagrams.net" agent="Mozilla/5.0 (Windows NT 10.0; Win64; x64) AppleWebKit/537.36 (KHTML, like Gecko) Chrome/137.0.0.0 Safari/537.36" version="27.1.4">
  <diagram name="Database Schema" id="AbCdEfGhIjKlMnOpQrSt">
    <mxGraphModel dx="1426" dy="777" grid="1" gridSize="10" guides="1" tooltips="1" connect="1" arrows="1" fold="1" page="1" pageScale="1" pageWidth="1169" pageHeight="827" math="0" shadow="0">
      <root>
        <mxCell id="0" />
        <mxCell id="1" parent="0" />
        <mxCell id="table-users" value="users" style="swimlane;fontStyle=1;align=center;verticalAlign=top;childLayout=stackLayout;horizontal=1;startSize=26;horizontalStack=0;resizeParent=1;resizeParentMax=0;resizeLast=0;collapsible=1;marginBottom=0;html=1;fillColor=#e3f2fd;strokeColor=#b3e5fc;" parent="1" vertex="1">
          <mxGeometry x="190" y="80" width="240" height="176" as="geometry" />
        </mxCell>
        <mxCell id="user-id" value="id (PK, UUID)" style="text;strokeColor=none;fillColor=none;align=left;verticalAlign=top;spacingLeft=4;spacingRight=4;overflow=hidden;rotatable=0;points=[[0,0.5],[1,0.5]];portConstraint=eastwest;html=1;" parent="table-users" vertex="1">
          <mxGeometry y="26" width="240" height="30" as="geometry" />
        </mxCell>
        <mxCell id="user-email" value="email (TEXT, UNIQUE)" style="text;strokeColor=none;fillColor=none;align=left;verticalAlign=top;spacingLeft=4;spacingRight=4;overflow=hidden;rotatable=0;points=[[0,0.5],[1,0.5]];portConstraint=eastwest;html=1;" parent="table-users" vertex="1">
          <mxGeometry y="56" width="240" height="30" as="geometry" />
        </mxCell>
        <mxCell id="user-password" value="password_hash (TEXT)" style="text;strokeColor=none;fillColor=none;align=left;verticalAlign=top;spacingLeft=4;spacingRight=4;overflow=hidden;rotatable=0;points=[[0,0.5],[1,0.5]];portConstraint=eastwest;html=1;" parent="table-users" vertex="1">
          <mxGeometry y="86" width="240" height="30" as="geometry" />
        </mxCell>
        <mxCell id="user-created" value="created_at (TIMESTAMPTZ)" style="text;strokeColor=none;fillColor=none;align=left;verticalAlign=top;spacingLeft=4;spacingRight=4;overflow=hidden;rotatable=0;points=[[0,0.5],[1,0.5]];portConstraint=eastwest;html=1;" parent="table-users" vertex="1">
          <mxGeometry y="116" width="240" height="30" as="geometry" />
        </mxCell>
        <mxCell id="user-updated" value="updated_at (TIMESTAMPTZ)" style="text;strokeColor=none;fillColor=none;align=left;verticalAlign=top;spacingLeft=4;spacingRight=4;overflow=hidden;rotatable=0;points=[[0,0.5],[1,0.5]];portConstraint=eastwest;html=1;" parent="table-users" vertex="1">
          <mxGeometry y="146" width="240" height="30" as="geometry" />
        </mxCell>
        <mxCell id="table-documents" value="documents" style="swimlane;fontStyle=1;align=center;verticalAlign=top;childLayout=stackLayout;horizontal=1;startSize=26;horizontalStack=0;resizeParent=1;resizeParentMax=0;resizeLast=0;collapsible=1;marginBottom=0;html=1;fillColor=#e8eaf6;strokeColor=#c5cae9;" parent="1" vertex="1">
          <mxGeometry x="580" y="60" width="240" height="176" as="geometry" />
        </mxCell>
        <mxCell id="doc-id" value="id (PK, UUID)" style="text;strokeColor=none;fillColor=none;align=left;verticalAlign=top;spacingLeft=4;spacingRight=4;overflow=hidden;rotatable=0;points=[[0,0.5],[1,0.5]];portConstraint=eastwest;html=1;" parent="table-documents" vertex="1">
          <mxGeometry y="26" width="240" height="30" as="geometry" />
        </mxCell>
        <mxCell id="doc-user-id" value="user_id (FK, UUID)" style="text;strokeColor=none;fillColor=none;align=left;verticalAlign=top;spacingLeft=4;spacingRight=4;overflow=hidden;rotatable=0;points=[[0,0.5],[1,0.5]];portConstraint=eastwest;html=1;" parent="table-documents" vertex="1">
          <mxGeometry y="56" width="240" height="30" as="geometry" />
        </mxCell>
        <mxCell id="doc-name" value="name (TEXT)" style="text;strokeColor=none;fillColor=none;align=left;verticalAlign=top;spacingLeft=4;spacingRight=4;overflow=hidden;rotatable=0;points=[[0,0.5],[1,0.5]];portConstraint=eastwest;html=1;" parent="table-documents" vertex="1">
          <mxGeometry y="86" width="240" height="30" as="geometry" />
        </mxCell>
        <mxCell id="doc-desc" value="description (TEXT)" style="text;strokeColor=none;fillColor=none;align=left;verticalAlign=top;spacingLeft=4;spacingRight=4;overflow=hidden;rotatable=0;points=[[0,0.5],[1,0.5]];portConstraint=eastwest;html=1;" parent="table-documents" vertex="1">
          <mxGeometry y="116" width="240" height="30" as="geometry" />
        </mxCell>
        <mxCell id="doc-created" value="created_at (TIMESTAMPTZ)" style="text;strokeColor=none;fillColor=none;align=left;verticalAlign=top;spacingLeft=4;spacingRight=4;overflow=hidden;rotatable=0;points=[[0,0.5],[1,0.5]];portConstraint=eastwest;html=1;" parent="table-documents" vertex="1">
          <mxGeometry y="146" width="240" height="30" as="geometry" />
        </mxCell>
        <mxCell id="table-files" value="files" style="swimlane;fontStyle=1;align=center;verticalAlign=top;childLayout=stackLayout;horizontal=1;startSize=26;horizontalStack=0;resizeParent=1;resizeParentMax=0;resizeLast=0;collapsible=1;marginBottom=0;html=1;fillColor=#e0f2f1;strokeColor=#b2dfdb;" parent="1" vertex="1">
          <mxGeometry x="920" y="40" width="240" height="266" as="geometry" />
        </mxCell>
        <mxCell id="file-id" value="id (PK, UUID)" style="text;strokeColor=none;fillColor=none;align=left;verticalAlign=top;spacingLeft=4;spacingRight=4;overflow=hidden;rotatable=0;points=[[0,0.5],[1,0.5]];portConstraint=eastwest;html=1;" parent="table-files" vertex="1">
          <mxGeometry y="26" width="240" height="30" as="geometry" />
        </mxCell>
        <mxCell id="file-doc-id" value="document_id (FK, UUID)" style="text;strokeColor=none;fillColor=none;align=left;verticalAlign=top;spacingLeft=4;spacingRight=4;overflow=hidden;rotatable=0;points=[[0,0.5],[1,0.5]];portConstraint=eastwest;html=1;" parent="table-files" vertex="1">
          <mxGeometry y="56" width="240" height="30" as="geometry" />
        </mxCell>
        <mxCell id="file-source-type" value="source_type (TEXT)" style="text;strokeColor=none;fillColor=none;align=left;verticalAlign=top;spacingLeft=4;spacingRight=4;overflow=hidden;rotatable=0;points=[[0,0.5],[1,0.5]];portConstraint=eastwest;html=1;" parent="table-files" vertex="1">
          <mxGeometry y="86" width="240" height="30" as="geometry" />
        </mxCell>
        <mxCell id="file-name" value="file_name (TEXT)" style="text;strokeColor=none;fillColor=none;align=left;verticalAlign=top;spacingLeft=4;spacingRight=4;overflow=hidden;rotatable=0;points=[[0,0.5],[1,0.5]];portConstraint=eastwest;html=1;" parent="table-files" vertex="1">
          <mxGeometry y="116" width="240" height="30" as="geometry" />
        </mxCell>
        <mxCell id="file-path" value="source_location (TEXT)" style="text;strokeColor=none;fillColor=none;align=left;verticalAlign=top;spacingLeft=4;spacingRight=4;overflow=hidden;rotatable=0;points=[[0,0.5],[1,0.5]];portConstraint=eastwest;html=1;" parent="table-files" vertex="1">
          <mxGeometry y="146" width="240" height="30" as="geometry" />
        </mxCell>
        <mxCell id="file-size" value="file_size (BIGINT)" style="text;strokeColor=none;fillColor=none;align=left;verticalAlign=top;spacingLeft=4;spacingRight=4;overflow=hidden;rotatable=0;points=[[0,0.5],[1,0.5]];portConstraint=eastwest;html=1;" parent="table-files" vertex="1">
          <mxGeometry y="176" width="240" height="30" as="geometry" />
        </mxCell>
        <mxCell id="file-type" value="file_type (TEXT)" style="text;strokeColor=none;fillColor=none;align=left;verticalAlign=top;spacingLeft=4;spacingRight=4;overflow=hidden;rotatable=0;points=[[0,0.5],[1,0.5]];portConstraint=eastwest;html=1;" parent="table-files" vertex="1">
          <mxGeometry y="206" width="240" height="30" as="geometry" />
        </mxCell>
        <mxCell id="file-status" value="processing_status (TEXT)" style="text;strokeColor=none;fillColor=none;align=left;verticalAlign=top;spacingLeft=4;spacingRight=4;overflow=hidden;rotatable=0;points=[[0,0.5],[1,0.5]];portConstraint=eastwest;html=1;" parent="table-files" vertex="1">
          <mxGeometry y="236" width="240" height="30" as="geometry" />
        </mxCell>
        <mxCell id="rel-user-doc" value="" style="edgeStyle=entityRelationEdgeStyle;endArrow=ERoneToMany;html=1;rounded=0;entryX=0;entryY=0.5;entryDx=0;entryDy=0;" parent="1" source="user-id" target="doc-user-id" edge="1">
          <mxGeometry width="100" height="100" relative="1" as="geometry">
            <mxPoint x="280" y="86" as="sourcePoint" />
            <mxPoint x="320" y="86" as="targetPoint" />
          </mxGeometry>
        </mxCell>
        <mxCell id="rel-doc-file" value="" style="edgeStyle=entityRelationEdgeStyle;endArrow=ERoneToMany;html=1;rounded=0;entryX=0;entryY=0.5;entryDx=0;entryDy=0;" parent="1" source="doc-id" target="file-doc-id" edge="1">
          <mxGeometry width="100" height="100" relative="1" as="geometry">
            <mxPoint x="560" y="86" as="sourcePoint" />
            <mxPoint x="600" y="86" as="targetPoint" />
          </mxGeometry>
        </mxCell>
        <mxCell id="table-chat-sessions" value="chat_sessions" style="swimlane;fontStyle=1;align=center;verticalAlign=top;childLayout=stackLayout;horizontal=1;startSize=26;horizontalStack=0;resizeParent=1;resizeParentMax=0;resizeLast=0;collapsible=1;marginBottom=0;html=1;fillColor=#fff3e0;strokeColor=#ffe0b2;" parent="1" vertex="1">
          <mxGeometry x="160" y="450" width="240" height="146" as="geometry" />
        </mxCell>
        <mxCell id="session-id" value="id (PK, UUID)" style="text;strokeColor=none;fillColor=none;align=left;verticalAlign=top;spacingLeft=4;spacingRight=4;overflow=hidden;rotatable=0;points=[[0,0.5],[1,0.5]];portConstraint=eastwest;html=1;" parent="table-chat-sessions" vertex="1">
          <mxGeometry y="26" width="240" height="30" as="geometry" />
        </mxCell>
        <mxCell id="session-user-id" value="user_id (FK, UUID)" style="text;strokeColor=none;fillColor=none;align=left;verticalAlign=top;spacingLeft=4;spacingRight=4;overflow=hidden;rotatable=0;points=[[0,0.5],[1,0.5]];portConstraint=eastwest;html=1;" parent="table-chat-sessions" vertex="1">
          <mxGeometry y="56" width="240" height="30" as="geometry" />
        </mxCell>
        <mxCell id="session-title" value="title (TEXT)" style="text;strokeColor=none;fillColor=none;align=left;verticalAlign=top;spacingLeft=4;spacingRight=4;overflow=hidden;rotatable=0;points=[[0,0.5],[1,0.5]];portConstraint=eastwest;html=1;" parent="table-chat-sessions" vertex="1">
          <mxGeometry y="86" width="240" height="30" as="geometry" />
        </mxCell>
        <mxCell id="session-created" value="created_at (TIMESTAMPTZ)" style="text;strokeColor=none;fillColor=none;align=left;verticalAlign=top;spacingLeft=4;spacingRight=4;overflow=hidden;rotatable=0;points=[[0,0.5],[1,0.5]];portConstraint=eastwest;html=1;" parent="table-chat-sessions" vertex="1">
          <mxGeometry y="116" width="240" height="30" as="geometry" />
        </mxCell>
        <mxCell id="table-chat-messages" value="chat_messages" style="swimlane;fontStyle=1;align=center;verticalAlign=top;childLayout=stackLayout;horizontal=1;startSize=26;horizontalStack=0;resizeParent=1;resizeParentMax=0;resizeLast=0;collapsible=1;marginBottom=0;html=1;fillColor=#fffde7;strokeColor=#fff9c4;" parent="1" vertex="1">
          <mxGeometry x="710" y="380" width="240" height="176" as="geometry" />
        </mxCell>
        <mxCell id="message-id" value="id (PK, UUID)" style="text;strokeColor=none;fillColor=none;align=left;verticalAlign=top;spacingLeft=4;spacingRight=4;overflow=hidden;rotatable=0;points=[[0,0.5],[1,0.5]];portConstraint=eastwest;html=1;" parent="table-chat-messages" vertex="1">
          <mxGeometry y="26" width="240" height="30" as="geometry" />
        </mxCell>
        <mxCell id="message-session-id" value="session_id (FK, UUID)" style="text;strokeColor=none;fillColor=none;align=left;verticalAlign=top;spacingLeft=4;spacingRight=4;overflow=hidden;rotatable=0;points=[[0,0.5],[1,0.5]];portConstraint=eastwest;html=1;" parent="table-chat-messages" vertex="1">
          <mxGeometry y="56" width="240" height="30" as="geometry" />
        </mxCell>
        <mxCell id="message-sender" value="sender (TEXT)" style="text;strokeColor=none;fillColor=none;align=left;verticalAlign=top;spacingLeft=4;spacingRight=4;overflow=hidden;rotatable=0;points=[[0,0.5],[1,0.5]];portConstraint=eastwest;html=1;" parent="table-chat-messages" vertex="1">
          <mxGeometry y="86" width="240" height="30" as="geometry" />
        </mxCell>
        <mxCell id="message-content" value="content (TEXT)" style="text;strokeColor=none;fillColor=none;align=left;verticalAlign=top;spacingLeft=4;spacingRight=4;overflow=hidden;rotatable=0;points=[[0,0.5],[1,0.5]];portConstraint=eastwest;html=1;" parent="table-chat-messages" vertex="1">
          <mxGeometry y="116" width="240" height="30" as="geometry" />
        </mxCell>
        <mxCell id="message-created" value="created_at (TIMESTAMPTZ)" style="text;strokeColor=none;fillColor=none;align=left;verticalAlign=top;spacingLeft=4;spacingRight=4;overflow=hidden;rotatable=0;points=[[0,0.5],[1,0.5]];portConstraint=eastwest;html=1;" parent="table-chat-messages" vertex="1">
          <mxGeometry y="146" width="240" height="30" as="geometry" />
        </mxCell>
        <mxCell id="rel-user-session" value="" style="edgeStyle=entityRelationEdgeStyle;endArrow=ERoneToMany;html=1;rounded=0;entryY=0.5;entryDx=0;entryDy=0;entryX=0.5;entryPerimeter=0;" parent="1" source="user-id" target="session-user-id" edge="1">
          <mxGeometry width="100" height="100" relative="1" as="geometry">
            <mxPoint x="160" y="240" as="sourcePoint" />
            <mxPoint x="160" y="380" as="targetPoint" />
          </mxGeometry>
        </mxCell>
        <mxCell id="rel-session-message" value="" style="edgeStyle=entityRelationEdgeStyle;endArrow=ERoneToMany;html=1;rounded=0;entryX=0;entryY=0.5;entryDx=0;entryDy=0;" parent="1" source="session-id" target="message-session-id" edge="1">
          <mxGeometry width="100" height="100" relative="1" as="geometry">
            <mxPoint x="280" y="423" as="sourcePoint" />
            <mxPoint x="320" y="423" as="targetPoint" />
          </mxGeometry>
        </mxCell>
      </root>
    </mxGraphModel>
  </diagram>
</mxfile>
